<svg height="512" viewBox="0 0 513 512" width="513" xmlns="http://www.w3.org/2000/svg"><g fill="none" transform="translate(.005001)"><path d="m0 0h512v512h-512z" fill="#3b86fb"/><g fill="#ffd262"><path d="m412.570709 218.975357h11.441805c2.990417 0 5.858354 1.187938 7.972898 3.302482s3.302482 4.982481 3.302482 7.972897v65.70717c0 6.22722-5.048159 11.275379-11.27538 11.275379h-11.441805z"/><path d="m87.7586494 218.975357h11.4418057v88.257928h-11.4418057c-6.2272201 0-11.2753794-5.048159-11.2753794-11.275379v-65.70717c0-2.990416 1.1879384-5.858353 3.3024822-7.972897s4.9824807-3.302482 7.9728972-3.302482z"/><rect height="17.537168" rx="8.43" width="96.059159" x="208.750543" y="71.324056"/></g><rect fill="#fff" height="313.41186" rx="41.41" width="313.41186" x="99.158849" y="106.387989"/><g fill="#3b86fb" transform="translate(165.261139 193.519043)"><path d="m143.948458 119.570366c-.408991 29.40543-24.363012 53.028599-53.771286 53.028599-29.4082744 0-53.3622948-23.623169-53.7712858-53.028599z"/><path d="m57.5420527 28.7952407c.0099794 6.7992606-2.4058208 13.3790889-6.8131061 18.5565284h-43.93653376c-8.21123522-9.7204432-9.06203782-23.6802215-2.09205141-34.3259103 6.96998637-10.64568878 20.10512757-15.44853605 32.29819757-11.8097939 12.19307 3.63874216 20.5477555 14.8547355 20.5434937 27.5791758z"/><path d="m180.967951 28.7952407c.012861 6.7979423-2.399195 13.3776183-6.802725 18.5565284h-43.936533c-8.218937-9.7185206-9.07553-23.6824293-2.106081-34.3326566 6.969449-10.65022722 20.108476-15.45548035 32.304545-11.81453624 12.196068 3.6409441 20.550478 14.86272404 20.540794 27.59066444z"/></g></g></svg>