<?xml version="1.0" encoding="UTF-8"?>
<svg width="200px" height="200px" viewBox="0 0 200 200" version="1.1" xmlns="http://www.w3.org/2000/svg" xmlns:xlink="http://www.w3.org/1999/xlink">
    <!-- Generator: Sketch 49.2 (51160) - http://www.bohemiancoding.com/sketch -->
    <title>inverted-logo</title>
    <desc>Created with Sketch.</desc>
    <defs>
        <path d="M29.7571489,40.9424298 C29.7571489,51.209829 34.9543734,62.2859035 46.3916632,62.2859035 C54.873791,62.2859035 63.4506413,55.6499307 63.4506413,40.7919786 C63.4506413,27.7654117 56.7083684,19.0204354 46.6740433,19.0204354 C38.4975294,19.0204354 29.7580425,24.7760896 29.7580425,40.9433253 L29.7571489,40.9424298 Z M50.7033221,0 C71.2107338,0 85,16.2773875 85,40.5063004 C85,64.3546075 70.4735071,81.0054365 49.7078427,81.0054365 C39.8066653,81.0054365 33.4656224,76.7551899 30.1494428,73.6798956 C30.1726766,74.4088676 30.1887616,75.2256027 30.1887616,76.0978614 L30.1887616,108.437706 L8.94412321,108.437706 L8.94412321,22.2712561 C8.94412321,21.0174961 8.5446804,20.6216661 7.30613961,20.6216661 L0,20.6216661 L0,1.75257743 L17.8265875,1.75257743 C26.033484,1.75257743 28.1343566,5.9383449 28.534693,9.16498592 C31.8660639,5.42340774 38.7727607,0 50.7033221,0 Z" id="path-1"></path>
    </defs>
    <g id="Page-1" stroke="none" stroke-width="1" fill="none" fill-rule="evenodd">
        <g id="inverted-logo">
            <polygon id="Shape" fill="#26292C" fill-rule="nonzero" points="0 200 200 200 200 0 0 0"></polygon>
            <g id="Group" transform="translate(61.000000, 45.000000)">
                <g id="Clipped">
                    <mask id="mask-2" fill="white">
                        <use xlink:href="#path-1"></use>
                    </mask>
                    <g id="c"></g>
                    <polygon id="Shape" fill="#FFFFFF" fill-rule="nonzero" mask="url(#mask-2)" points="-3 129.05418 113.07 129.05418 113.07 -16 -3 -16"></polygon>
                </g>
            </g>
        </g>
    </g>
</svg>